<?xml version="1.0" encoding="UTF-8"?>
<svg id="Layer_1" data-name="Layer 1" xmlns="http://www.w3.org/2000/svg" viewBox="0 0 500 500">
  <path d="M465.13,305.05c-3.38-6.78-11.62-9.52-18.4-6.14l-3,1.53c-8.57,4.41-18.27,9.41-37.33,9.41-27.21,0-56.86-24.17-88.25-49.76-37.57-30.63-76.41-62.31-122.08-63.29-.68-.01-1.35-.02-2.02-.02-34.87,0-70.18,19.5-105.09,57.97-20.66-26.25-30.51-59.27-27.61-92.45l268.35,2.01c5.37-.13,10.48-2.33,13.92-6.5,3.43-4.15,4.79-9.54,3.74-14.8C330.58,59.02,248.16,2.94,163.65,18.05,97.19,29.9,45.61,82.7,35.29,149.43c-7.08,45.8,6.15,92.25,36.33,127.45,30.34,35.4,74.19,55.7,120.29,55.7,17.06,0,33.92-2.73,50.11-8.13,7.19-2.39,11.07-10.16,8.68-17.34-2.4-7.19-10.16-11.06-17.34-8.68-13.39,4.46-27.34,6.73-41.44,6.73-30.78,0-60.36-10.99-83.83-30.67,30.38-33.96,59.65-50.94,87.41-50.25,23.3.5,46.13,12.54,68.5,28.42v218.06c0,7.57,6.14,13.71,13.71,13.71s13.71-6.14,13.71-13.71v-197c3.15,2.54,6.29,5.1,9.42,7.65,35.28,28.76,68.6,55.94,105.58,55.93,25.71,0,40.26-7.5,49.89-12.46l2.7-1.38c6.78-3.39,9.52-11.62,6.14-18.4ZM168.47,45.04c65.97-11.77,130.38,28.81,149.12,91.75l-250.81-1.88c14.41-45.59,53.99-81.36,101.69-89.87Z"/>
</svg>